<mxfile host="app.diagrams.net" modified="2023-10-05T11:49:35.794Z" agent="Mozilla/5.0 (Windows NT 10.0; Win64; x64) AppleWebKit/537.36 (KHTML, like Gecko) Chrome/117.0.0.0 Safari/537.36" version="22.0.2" etag="4GO7mlMbsYtBDBWa0VxK" type="github">
  <diagram name="Page-1" id="5rP-T8-6TlWZAUi4YzO5">
    <mxGraphModel>
      <root>
        <mxCell id="0" />
        <mxCell id="1" parent="0" />
      </root>
    </mxGraphModel>
  </diagram>
</mxfile>
